[h264 @ 0x556a5e219400] Reinit context to 1920x1088, pix_fmt: yuv420p
Input #0, mov,mp4,m4a,3gp,3g2,mj2, from '/var/www/html/project/media/video/original/20230516_000144.mp4':
  Metadata:
    major_brand     : mp42
    minor_version   : 0
    compatible_brands: isommp42
    creation_time   : 2023-05-15T22:02:29.000000Z
    com.android.version: 13
    com.android.capture.fps: 60.000000
  Duration: 00:00:43.78, start: 0.000000, bitrate: 27382 kb/s
    Stream #0:0(eng): Video: h264 (High), 1 reference frame (avc1 / 0x31637661), yuv420p(tv, bt709, left), 1920x1080 (1920x1088), 27124 kb/s, 52.98 fps, 59.94 tbr, 90k tbn, 180k tbc (default)
    Metadata:
      creation_time   : 2023-05-15T22:02:29.000000Z
      handler_name    : VideoHandle
    Stream #0:1(eng): Audio: aac (LC) (mp4a / 0x6134706D), 48000 Hz, stereo, fltp, 256 kb/s (default)
    Metadata:
      creation_time   : 2023-05-15T22:02:29.000000Z
      handler_name    : SoundHandle
Input #1, png_pipe, from '/var/www/html/project/static/images/templates/logo.png':
  Duration: N/A, bitrate: N/A
    Stream #1:0: Video: png, 1 reference frame, rgba(pc), 1920x1080 [SAR 2835:2835 DAR 16:9], 25 tbr, 25 tbn, 25 tbc
[h264 @ 0x556a5e236580] Reinit context to 1280x720, pix_fmt: yuv420p
Input #2, mov,mp4,m4a,3gp,3g2,mj2, from '/var/www/html/project/static/images/templates/Codino.mp4':
  Metadata:
    major_brand     : mp42
    minor_version   : 1
    compatible_brands: isommp41mp42
    creation_time   : 2021-07-11T07:02:58.000000Z
  Duration: 00:00:02.00, start: 0.000000, bitrate: 1007 kb/s
    Stream #2:0(ita): Audio: aac (LC) (mp4a / 0x6134706D), 44100 Hz, stereo, fltp, 102 kb/s (default)
    Metadata:
      creation_time   : 2021-07-11T07:02:58.000000Z
      handler_name    : Core Media Audio
    Stream #2:1(und): Video: h264 (High), 1 reference frame (avc1 / 0x31637661), yuv420p(tv, bt709, progressive, left), 1280x720 [SAR 1:1 DAR 16:9], 813 kb/s, 25 fps, 25 tbr, 25k tbn, 50k tbc (default)
    Metadata:
      creation_time   : 2021-07-11T07:02:58.000000Z
      handler_name    : Core Media Video
[Parsed_scale_0 @ 0x556a5e27c680] w:1280 h:720 flags:'bilinear' interl:0
[Parsed_scale_2 @ 0x556a5e32b1c0] w:1280 h:720 flags:'bilinear' interl:0
[Parsed_scale_4 @ 0x556a5e26fec0] w:1280 h:720 flags:'bilinear' interl:0
Stream mapping:
  Stream #0:0 (h264) -> scale
  Stream #0:1 (aac) -> concat:in0:a0
  Stream #1:0 (png) -> scale
  Stream #2:0 (aac) -> concat:in1:a0
  Stream #2:1 (h264) -> scale
  concat:out:v0 -> Stream #0:0 (libx264)
  concat:out:a0 -> Stream #0:1 (aac)
Press [q] to stop, [?] for help
[h264 @ 0x556a5e329980] Reinit context to 1920x1088, pix_fmt: yuv420p
[h264 @ 0x556a5e7e4bc0] Reinit context to 1280x720, pix_fmt: yuv420p
[Parsed_scale_0 @ 0x556a5fd2d680] w:1280 h:720 flags:'bilinear' interl:0
[Parsed_scale_2 @ 0x556a5fd35d40] w:1280 h:720 flags:'bilinear' interl:0
[Parsed_scale_4 @ 0x556a5fd36f80] w:1280 h:720 flags:'bilinear' interl:0
[graph 0 input from stream 0:0 @ 0x556a5fd3b840] w:1920 h:1080 pixfmt:yuv420p tb:1/90000 fr:60000/1001 sar:0/1 sws_param:flags=2
[graph 0 input from stream 1:0 @ 0x556a5fd3c900] w:1920 h:1080 pixfmt:rgba tb:1/25 fr:25/1 sar:2835/2835 sws_param:flags=2
[graph 0 input from stream 2:1 @ 0x556a5fd3d980] w:1280 h:720 pixfmt:yuv420p tb:1/25000 fr:25/1 sar:1/1 sws_param:flags=2
[graph_0_in_0_1 @ 0x556a5fd3e900] tb:1/48000 samplefmt:fltp samplerate:48000 chlayout:0x3
[graph_0_in_2_0 @ 0x556a5fd3fa40] tb:1/44100 samplefmt:fltp samplerate:44100 chlayout:0x3
[Parsed_concat_7 @ 0x556a5fd398c0] auto-inserting filter 'auto_resampler_0' between the filter 'graph_0_in_2_0' and the filter 'Parsed_concat_7'
[Parsed_scale_0 @ 0x556a5fd2d680] w:1920 h:1080 fmt:yuv420p sar:0/1 -> w:1280 h:720 fmt:yuv420p sar:0/1 flags:0x2
[Parsed_setsar_1 @ 0x556a5fd2d8c0] w:1280 h:720 sar:0/1 dar:16/9 -> sar:1/1 dar:16/9
[Parsed_scale_2 @ 0x556a5fd35d40] w:1920 h:1080 fmt:rgba sar:2835/2835 -> w:1280 h:720 fmt:yuva420p sar:1/1 flags:0x2
[Parsed_setsar_3 @ 0x556a5fd36340] w:1280 h:720 sar:1/1 dar:16/9 -> sar:1/1 dar:16/9
[Parsed_overlay_6 @ 0x556a5fd386c0] main w:1280 h:720 fmt:yuv420p overlay w:1280 h:720 fmt:yuva420p
[Parsed_overlay_6 @ 0x556a5fd386c0] [framesync @ 0x556a5fd38828] Selected 1/90000 time base
[Parsed_overlay_6 @ 0x556a5fd386c0] [framesync @ 0x556a5fd38828] Sync level 2
[Parsed_scale_4 @ 0x556a5fd36f80] w:1280 h:720 fmt:yuv420p sar:1/1 -> w:1280 h:720 fmt:yuv420p sar:1/1 flags:0x2
[Parsed_setsar_5 @ 0x556a5fd37ac0] w:1280 h:720 sar:1/1 dar:16/9 -> sar:1/1 dar:16/9
[auto_resampler_0 @ 0x556a5fd44bc0] ch:2 chl:stereo fmt:fltp r:44100Hz -> ch:2 chl:stereo fmt:fltp r:48000Hz
[libx264 @ 0x556a5e271fc0] using SAR=1/1
[libx264 @ 0x556a5e271fc0] using cpu capabilities: MMX2 SSE2Fast SSSE3 SSE4.2 AVX FMA3 BMI2 AVX2
[libx264 @ 0x556a5e271fc0] profile High, level 3.2
[libx264 @ 0x556a5e271fc0] 264 - core 155 r2917 0a84d98 - H.264/MPEG-4 AVC codec - Copyleft 2003-2018 - http://www.videolan.org/x264.html - options: cabac=1 ref=1 deblock=1:0:0 analyse=0x3:0x113 me=hex subme=2 psy=1 psy_rd=1.00:0.00 mixed_ref=0 me_range=16 chroma_me=1 trellis=0 8x8dct=1 cqm=0 deadzone=21,11 fast_pskip=1 chroma_qp_offset=0 threads=22 lookahead_threads=5 sliced_threads=0 nr=0 decimate=1 interlaced=0 bluray_compat=0 constrained_intra=0 bframes=3 b_pyramid=2 b_adapt=1 b_bias=0 direct=1 weightb=1 open_gop=0 weightp=1 keyint=250 keyint_min=25 scenecut=40 intra_refresh=0 rc_lookahead=10 rc=crf mbtree=1 crf=18.0 qcomp=0.60 qpmin=0 qpmax=69 qpstep=4 ip_ratio=1.40 aq=1:1.00
Output #0, mp4, to '/var/www/html/project/media/video/watermarks/20230516_000144.mp4':
  Metadata:
    major_brand     : mp42
    minor_version   : 0
    compatible_brands: isommp42
    com.android.capture.fps: 60.000000
    com.android.version: 13
    encoder         : Lavf58.29.100
    Stream #0:0: Video: h264 (libx264), 1 reference frame (avc1 / 0x31637661), yuv420p, 1280x720 [SAR 1:1 DAR 16:9], q=-1--1, 59.94 fps, 60k tbn, 59.94 tbc (default)
    Metadata:
      encoder         : Lavc58.54.100 libx264
    Side data:
      cpb: bitrate max/min/avg: 0/0/0 buffer size: 0 vbv_delay: -1
    Stream #0:1: Audio: aac (LC) (mp4a / 0x6134706D), 48000 Hz, stereo, fltp, delay 1024, 128 kb/s (default)
    Metadata:
      encoder         : Lavc58.54.100 aac
[Parsed_overlay_6 @ 0x556a5fd386c0] [framesync @ 0x556a5fd38828] Sync level 0
[Parsed_concat_7 @ 0x556a5fd398c0] EOF on in0:v0, 1 streams left in segment.
[Parsed_concat_7 @ 0x556a5fd398c0] EOF on in0:a0, 0 streams left in segment.
[Parsed_concat_7 @ 0x556a5fd398c0] Segment finished at pts=43760960
[Parsed_concat_7 @ 0x556a5fd398c0] EOF on in1:v0, 1 streams left in segment.
[Parsed_concat_7 @ 0x556a5fd398c0] EOF on in1:a0, 0 streams left in segment.
[Parsed_concat_7 @ 0x556a5fd398c0] Segment finished at pts=45779647
No more output streams to write to, finishing.
frame= 2369 fps= 71 q=-1.0 Lsize=   48686kB time=00:00:45.78 bitrate=8711.9kbits/s speed=1.37x    
[AVIOContext @ 0x556a5e217440] Statistics: 0 seeks, 66 writeouts
video:47889kB audio:730kB subtitle:0kB other streams:0kB global headers:0kB muxing overhead: 0.138463%
Input file #0 (/var/www/html/project/media/video/original/20230516_000144.mp4):
  Input stream #0:0 (video): 2319 packets read (148399187 bytes); 2319 frames decoded; 
  Input stream #0:1 (audio): 2051 packets read (1400255 bytes); 2051 frames decoded (2100224 samples); 
  Total: 4370 packets (149799442 bytes) demuxed
Input file #1 (/var/www/html/project/static/images/templates/logo.png):
  Input stream #1:0 (video): 1 packets read (111578 bytes); 1 frames decoded; 
  Total: 1 packets (111578 bytes) demuxed
Input file #2 (/var/www/html/project/static/images/templates/Codino.mp4):
  Input stream #2:0 (audio): 89 packets read (26579 bytes); 87 frames decoded (89024 samples); 
  Input stream #2:1 (video): 50 packets read (203365 bytes); 50 frames decoded; 
  Total: 139 packets (229944 bytes) demuxed
Output file #0 (/var/www/html/project/media/video/watermarks/20230516_000144.mp4):
  Output stream #0:0 (video): 2369 frames encoded; 2369 packets muxed (49038210 bytes); 
  Output stream #0:1 (audio): 2146 frames encoded (2197456 samples); 2147 packets muxed (747681 bytes); 
  Total: 4516 packets (49785891 bytes) muxed
[AVIOContext @ 0x556a5e2710c0] Statistics: 2 seeks, 193 writeouts
[libx264 @ 0x556a5e271fc0] frame I:10    Avg QP:20.51  size:141543
[libx264 @ 0x556a5e271fc0] frame P:614   Avg QP:22.93  size: 46752
[libx264 @ 0x556a5e271fc0] frame B:1745  Avg QP:26.06  size: 10840
[libx264 @ 0x556a5e271fc0] consecutive B-frames:  1.4%  0.9%  1.1% 96.6%
[libx264 @ 0x556a5e271fc0] mb I  I16..4:  2.9% 13.7% 83.4%
[libx264 @ 0x556a5e271fc0] mb P  I16..4:  2.4%  7.6%  4.0%  P16..4: 39.2% 21.7% 19.2%  0.0%  0.0%    skip: 5.8%
[libx264 @ 0x556a5e271fc0] mb B  I16..4:  0.5%  0.9%  0.1%  B16..8: 21.0%  9.3%  1.8%  direct:21.3%  skip:45.1%  L0:26.4% L1:39.5% BI:34.2%
[libx264 @ 0x556a5e271fc0] 8x8 transform intra:51.7% inter:39.1%
[libx264 @ 0x556a5e271fc0] coded y,uvDC,uvAC intra: 77.3% 50.9% 12.4% inter: 30.5% 13.1% 0.6%
[libx264 @ 0x556a5e271fc0] i16 v,h,dc,p: 38% 14% 37% 12%
[libx264 @ 0x556a5e271fc0] i8 v,h,dc,ddl,ddr,vr,hd,vl,hu: 23% 12% 25%  6%  7%  8%  6%  7%  6%
[libx264 @ 0x556a5e271fc0] i4 v,h,dc,ddl,ddr,vr,hd,vl,hu: 20% 15% 12%  7% 10% 10%  9%  9%  8%
[libx264 @ 0x556a5e271fc0] i8c dc,h,v,p: 52% 17% 25%  6%
[libx264 @ 0x556a5e271fc0] Weighted P-Frames: Y:6.7% UV:0.5%
[libx264 @ 0x556a5e271fc0] kb/s:8569.42
[aac @ 0x556a5e2740c0] Qavg: 1448.741
[AVIOContext @ 0x556a5e2203c0] Statistics: 149865764 bytes read, 2 seeks
[AVIOContext @ 0x556a5e353940] Statistics: 111578 bytes read, 0 seeks
[AVIOContext @ 0x556a5e21bb40] Statistics: 1530915 bytes read, 42 seeks
